<?xml version="1.0" encoding="UTF-8" standalone="no"?>
<!-- Created with Inkscape (http://www.inkscape.org/) -->

<svg
   xmlns:ns0="http://www.iki.fi/pav/software/textext/"
   xmlns:dc="http://purl.org/dc/elements/1.1/"
   xmlns:cc="http://creativecommons.org/ns#"
   xmlns:rdf="http://www.w3.org/1999/02/22-rdf-syntax-ns#"
   xmlns:svg="http://www.w3.org/2000/svg"
   xmlns="http://www.w3.org/2000/svg"
   xmlns:xlink="http://www.w3.org/1999/xlink"
   xmlns:sodipodi="http://sodipodi.sourceforge.net/DTD/sodipodi-0.dtd"
   xmlns:inkscape="http://www.inkscape.org/namespaces/inkscape"
   width="210mm"
   height="297mm"
   viewBox="0 0 744.09448819 1052.3622047"
   id="svg2"
   version="1.1"
   inkscape:version="0.91 r13725"
   sodipodi:docname="rc.svg">
  <sodipodi:namedview
     id="base"
     pagecolor="#ffffff"
     bordercolor="#666666"
     borderopacity="1.0"
     inkscape:pageopacity="0.0"
     inkscape:pageshadow="2"
     inkscape:zoom="0.7"
     inkscape:cx="478.62241"
     inkscape:cy="502.65527"
     inkscape:document-units="px"
     inkscape:current-layer="layer1"
     showgrid="true"
     inkscape:window-width="1680"
     inkscape:window-height="986"
     inkscape:window-x="0"
     inkscape:window-y="27"
     inkscape:window-maximized="1">
    <inkscape:grid
       id="grid4136"
       type="xygrid" />
  </sodipodi:namedview>
  <defs
     id="defs4" />
  <metadata
     id="metadata7">
    <rdf:RDF>
      <cc:Work
         rdf:about="">
        <dc:format>image/svg+xml</dc:format>
        <dc:type
           rdf:resource="http://purl.org/dc/dcmitype/StillImage" />
        <dc:title></dc:title>
      </cc:Work>
    </rdf:RDF>
  </metadata>
  <g
     id="layer1"
     inkscape:groupmode="layer"
     inkscape:label="Layer 1">
    <path
       sodipodi:nodetypes="cc"
       inkscape:connector-curvature="0"
       id="path4138"
       d="m 80,342.3622 110,0"
       style="fill:none;fill-rule:evenodd;stroke:#000000;stroke-width:3;stroke-linecap:butt;stroke-linejoin:miter;stroke-opacity:1;stroke-miterlimit:4;stroke-dasharray:none" />
    <path
       inkscape:connector-curvature="0"
       id="path4140"
       d="m 290,342.3622 50,0 10,-30 10,60 10,-60"
       style="fill:none;fill-rule:evenodd;stroke:#000000;stroke-width:3;stroke-linecap:butt;stroke-linejoin:miter;stroke-opacity:1;stroke-miterlimit:4;stroke-dasharray:none" />
    <path
       inkscape:connector-curvature="0"
       id="path4142"
       d="m 370,312.3622 10,60"
       style="fill:none;fill-rule:evenodd;stroke:#000000;stroke-width:3;stroke-linecap:butt;stroke-linejoin:miter;stroke-opacity:1;stroke-miterlimit:4;stroke-dasharray:none" />
    <path
       inkscape:connector-curvature="0"
       id="path4144"
       d="m 380,372.3622 10,-60 10,60"
       style="fill:none;fill-rule:evenodd;stroke:#000000;stroke-width:3;stroke-linecap:butt;stroke-linejoin:miter;stroke-opacity:1;stroke-miterlimit:4;stroke-dasharray:none" />
    <path
       inkscape:connector-curvature="0"
       id="path4146"
       d="m 400,372.3622 10,-60 10,60"
       style="fill:none;fill-rule:evenodd;stroke:#000000;stroke-width:3;stroke-linecap:butt;stroke-linejoin:miter;stroke-opacity:1;stroke-miterlimit:4;stroke-dasharray:none" />
    <path
       inkscape:connector-curvature="0"
       id="path4148"
       d="m 420,372.3622 10,-60 10,30 40,0 0,90"
       style="fill:none;fill-rule:evenodd;stroke:#000000;stroke-width:3;stroke-linecap:butt;stroke-linejoin:miter;stroke-opacity:1;stroke-miterlimit:4;stroke-dasharray:none" />
    <path
       inkscape:connector-curvature="0"
       id="path4150"
       d="m 440,432.3622 70,0 10,0"
       style="fill:none;fill-rule:evenodd;stroke:#000000;stroke-width:3;stroke-linecap:butt;stroke-linejoin:miter;stroke-opacity:1;stroke-miterlimit:4;stroke-dasharray:none" />
    <path
       inkscape:connector-curvature="0"
       id="path4152"
       d="m 440,462.3622 80,0"
       style="fill:none;fill-rule:evenodd;stroke:#000000;stroke-width:3;stroke-linecap:butt;stroke-linejoin:miter;stroke-opacity:1;stroke-miterlimit:4;stroke-dasharray:none" />
    <path
       inkscape:connector-curvature="0"
       id="path4154"
       d="m 480,462.3622 0,90 -400,0 0,-90"
       style="fill:none;fill-rule:evenodd;stroke:#000000;stroke-width:3;stroke-linecap:butt;stroke-linejoin:miter;stroke-opacity:1;stroke-miterlimit:4;stroke-dasharray:none" />
    <path
       inkscape:connector-curvature="0"
       id="path4156"
       d="m 60,462.3622 40,0"
       style="fill:none;fill-rule:evenodd;stroke:#000000;stroke-width:3;stroke-linecap:butt;stroke-linejoin:miter;stroke-opacity:1;stroke-miterlimit:4;stroke-dasharray:none" />
    <path
       inkscape:connector-curvature="0"
       id="path4158"
       d="m 30,432.3622 100,0"
       style="fill:none;fill-rule:evenodd;stroke:#000000;stroke-width:3;stroke-linecap:butt;stroke-linejoin:miter;stroke-opacity:1;stroke-miterlimit:4;stroke-dasharray:none" />
    <path
       inkscape:connector-curvature="0"
       id="path4160"
       d="m 80,432.3622 0,-90"
       style="fill:none;fill-rule:evenodd;stroke:#000000;stroke-width:3;stroke-linecap:butt;stroke-linejoin:miter;stroke-opacity:1;stroke-miterlimit:4;stroke-dasharray:none" />
    <path
       inkscape:connector-curvature="0"
       id="path4162"
       d="m 289.64106,342.00686 -70.71068,70.71068"
       style="fill:none;fill-rule:evenodd;stroke:#000000;stroke-width:3;stroke-linecap:butt;stroke-linejoin:miter;stroke-opacity:1;stroke-miterlimit:4;stroke-dasharray:none" />
    <path
       inkscape:connector-curvature="0"
       id="path4164"
       d="m 290,552.3622 0,-110"
       style="fill:none;fill-rule:evenodd;stroke:#000000;stroke-width:3;stroke-linecap:butt;stroke-linejoin:miter;stroke-opacity:1;stroke-miterlimit:4;stroke-dasharray:none" />
    <g
       id="g4186"
       ns0:preamble=""
       ns0:text="$C$"
       transform="matrix(4.137931,0,0,4.137931,-391.25468,-94.997997)">
      <defs
         id="defs4188">
        <g
           id="g4190">
          <symbol
             id="textext-985e667b-0"
             overflow="visible"
             style="overflow:visible">
            <path
               id="path4193"
               d=""
               style="stroke:none"
               inkscape:connector-curvature="0" />
          </symbol>
          <symbol
             id="textext-985e667b-1"
             overflow="visible"
             style="overflow:visible">
            <path
               id="path4196"
               d="m 7.578125,-6.921875 c 0,-0.03125 -0.015625,-0.109375 -0.109375,-0.109375 -0.03125,0 -0.046875,0.015625 -0.15625,0.125 L 6.625,-6.140625 C 6.53125,-6.28125 6.078125,-7.03125 4.96875,-7.03125 2.734375,-7.03125 0.5,-4.828125 0.5,-2.515625 0.5,-0.875 1.671875,0.21875 3.203125,0.21875 c 0.859375,0 1.625,-0.390625 2.15625,-0.859375 0.921875,-0.8125 1.09375,-1.71875 1.09375,-1.75 C 6.453125,-2.5 6.34375,-2.5 6.328125,-2.5 c -0.0625,0 -0.109375,0.03125 -0.125,0.109375 -0.09375,0.28125 -0.328125,1 -1.015625,1.578125 -0.6875,0.546875 -1.3125,0.71875 -1.828125,0.71875 -0.890625,0 -1.953125,-0.515625 -1.953125,-2.0625 0,-0.578125 0.203125,-2.1875 1.203125,-3.359375 0.609375,-0.703125 1.546875,-1.203125 2.4375,-1.203125 1.015625,0 1.609375,0.765625 1.609375,1.921875 0,0.40625 -0.03125,0.40625 -0.03125,0.515625 0,0.09375 0.109375,0.09375 0.140625,0.09375 0.125,0 0.125,-0.015625 0.1875,-0.203125 z m 0,0"
               style="stroke:none"
               inkscape:connector-curvature="0" />
          </symbol>
        </g>
      </defs>
      <g
         id="textext-985e667b-2">
        <g
           id="g4199"
           style="fill:#000000;fill-opacity:1">
          <use
             id="use4201"
             y="134.765"
             x="223.43201"
             xlink:href="#textext-985e667b-1"
             width="100%"
             height="100%" />
        </g>
      </g>
    </g>
    <g
       ns0:text="$R$"
       ns0:preamble=""
       transform="matrix(4.137931,0,0,4.137931,-554.11182,-143.56943)"
       id="g4303">
      <defs
         id="defs4305">
        <g
           id="g4307">
          <symbol
             style="overflow:visible"
             overflow="visible"
             id="textext-3a2c719b-0">
            <path
               inkscape:connector-curvature="0"
               style="stroke:none"
               d=""
               id="path4310" />
          </symbol>
          <symbol
             style="overflow:visible"
             overflow="visible"
             id="textext-3a2c719b-1">
            <path
               inkscape:connector-curvature="0"
               style="stroke:none"
               d="m 3.734375,-6.125 c 0.0625,-0.234375 0.09375,-0.328125 0.28125,-0.359375 C 4.109375,-6.5 4.421875,-6.5 4.625,-6.5 c 0.703125,0 1.8125,0 1.8125,0.984375 0,0.34375 -0.15625,1.03125 -0.546875,1.421875 -0.265625,0.25 -0.78125,0.578125 -1.6875,0.578125 l -1.109375,0 z m 1.4375,2.734375 c 1.015625,-0.21875 2.1875,-0.921875 2.1875,-1.921875 0,-0.859375 -0.890625,-1.5 -2.203125,-1.5 l -2.828125,0 c -0.203125,0 -0.296875,0 -0.296875,0.203125 C 2.03125,-6.5 2.125,-6.5 2.3125,-6.5 c 0.015625,0 0.203125,0 0.375,0.015625 0.1875,0.03125 0.265625,0.03125 0.265625,0.171875 0,0.03125 0,0.0625 -0.03125,0.1875 l -1.34375,5.34375 C 1.484375,-0.390625 1.46875,-0.3125 0.671875,-0.3125 0.5,-0.3125 0.40625,-0.3125 0.40625,-0.109375 0.40625,0 0.53125,0 0.546875,0 c 0.28125,0 0.984375,-0.03125 1.25,-0.03125 0.28125,0 1,0.03125 1.28125,0.03125 0.078125,0 0.1875,0 0.1875,-0.203125 0,-0.109375 -0.078125,-0.109375 -0.28125,-0.109375 -0.359375,0 -0.640625,0 -0.640625,-0.171875 0,-0.0625 0.015625,-0.109375 0.03125,-0.171875 l 0.65625,-2.640625 1.1875,0 c 0.90625,0 1.078125,0.5625 1.078125,0.90625 0,0.140625 -0.078125,0.453125 -0.140625,0.6875 C 5.09375,-1.421875 5,-1.0625 5,-0.859375 5,0.21875 6.203125,0.21875 6.328125,0.21875 c 0.84375,0 1.203125,-1 1.203125,-1.140625 0,-0.125 -0.109375,-0.125 -0.125,-0.125 -0.09375,0 -0.109375,0.0625 -0.125,0.140625 C 7.03125,-0.171875 6.59375,0 6.375,0 6.046875,0 5.96875,-0.21875 5.96875,-0.609375 c 0,-0.3125 0.0625,-0.8125 0.109375,-1.140625 0.015625,-0.140625 0.03125,-0.328125 0.03125,-0.46875 0,-0.765625 -0.671875,-1.078125 -0.9375,-1.171875 z m 0,0"
               id="path4313" />
          </symbol>
        </g>
      </defs>
      <g
         id="textext-3a2c719b-2">
        <g
           style="fill:#000000;fill-opacity:1"
           id="g4316">
          <use
             height="100%"
             width="100%"
             xlink:href="#textext-3a2c719b-1"
             x="223.43201"
             y="134.765"
             id="use4318" />
        </g>
      </g>
    </g>
    <g
       id="g4478"
       transform="matrix(4.137931,0,0,4.137931,-814.11182,-63.569429)"
       ns0:preamble=""
       ns0:text="$U$">
      <defs
         id="defs4480">
        <g
           id="g4482">
          <symbol
             id="textext-320b2a1a-0"
             overflow="visible">
            <path
               id="path4485"
               d=""
               style="stroke:none;" />
          </symbol>
          <symbol
             id="textext-320b2a1a-1"
             overflow="visible">
            <path
               id="path4488"
               d="M 6.328125 -5.765625 C 6.4375 -6.171875 6.609375 -6.46875 7.40625 -6.5 C 7.453125 -6.5 7.578125 -6.515625 7.578125 -6.703125 C 7.578125 -6.703125 7.578125 -6.8125 7.453125 -6.8125 C 7.125 -6.8125 6.765625 -6.78125 6.4375 -6.78125 C 6.09375 -6.78125 5.71875 -6.8125 5.390625 -6.8125 C 5.328125 -6.8125 5.21875 -6.8125 5.21875 -6.609375 C 5.21875 -6.5 5.3125 -6.5 5.390625 -6.5 C 5.96875 -6.484375 6.078125 -6.28125 6.078125 -6.0625 C 6.078125 -6.03125 6.046875 -5.875 6.046875 -5.859375 L 5.140625 -2.296875 C 4.8125 -0.953125 3.65625 -0.09375 2.65625 -0.09375 C 1.984375 -0.09375 1.453125 -0.53125 1.453125 -1.390625 C 1.453125 -1.40625 1.453125 -1.71875 1.5625 -2.15625 L 2.515625 -6.046875 C 2.609375 -6.40625 2.625 -6.5 3.359375 -6.5 C 3.625 -6.5 3.703125 -6.5 3.703125 -6.703125 C 3.703125 -6.8125 3.59375 -6.8125 3.5625 -6.8125 C 3.28125 -6.8125 2.5625 -6.78125 2.28125 -6.78125 C 2 -6.78125 1.28125 -6.8125 1 -6.8125 C 0.921875 -6.8125 0.8125 -6.8125 0.8125 -6.609375 C 0.8125 -6.5 0.890625 -6.5 1.09375 -6.5 C 1.109375 -6.5 1.296875 -6.5 1.46875 -6.484375 C 1.640625 -6.453125 1.734375 -6.453125 1.734375 -6.3125 C 1.734375 -6.265625 1.625 -5.84375 1.5625 -5.609375 L 1.34375 -4.734375 C 1.25 -4.34375 0.78125 -2.46875 0.734375 -2.265625 C 0.671875 -2 0.671875 -1.84375 0.671875 -1.6875 C 0.671875 -0.484375 1.578125 0.21875 2.625 0.21875 C 3.875 0.21875 5.109375 -0.90625 5.4375 -2.21875 Z M 6.328125 -5.765625 "
               style="stroke:none;" />
          </symbol>
        </g>
      </defs>
      <g
         id="textext-320b2a1a-2">
        <g
           id="g4491"
           style="fill:rgb(0%,0%,0%);fill-opacity:1;">
          <use
             id="use4493"
             y="134.765"
             x="223.432"
             xlink:href="#textext-320b2a1a-1" />
        </g>
      </g>
    </g>
    <g
       ns0:text="$(a)$"
       ns0:preamble=""
       transform="matrix(4.137931,0,0,4.137931,-778.39753,-179.28372)"
       id="g4654">
      <defs
         id="defs4656">
        <g
           id="g4658">
          <symbol
             style="overflow:visible"
             overflow="visible"
             id="textext-94e7af3c-0">
            <path
               inkscape:connector-curvature="0"
               style="stroke:none"
               d=""
               id="path4661" />
          </symbol>
          <symbol
             style="overflow:visible"
             overflow="visible"
             id="textext-94e7af3c-1">
            <path
               inkscape:connector-curvature="0"
               style="stroke:none"
               d="m 3.296875,2.390625 c 0,-0.03125 0,-0.046875 -0.171875,-0.21875 C 1.890625,0.921875 1.5625,-0.96875 1.5625,-2.5 c 0,-1.734375 0.375,-3.46875 1.609375,-4.703125 0.125,-0.125 0.125,-0.140625 0.125,-0.171875 0,-0.078125 -0.03125,-0.109375 -0.09375,-0.109375 -0.109375,0 -1,0.6875 -1.59375,1.953125 -0.5,1.09375 -0.625,2.203125 -0.625,3.03125 0,0.78125 0.109375,1.984375 0.65625,3.125 C 2.25,1.84375 3.09375,2.5 3.203125,2.5 c 0.0625,0 0.09375,-0.03125 0.09375,-0.109375 z m 0,0"
               id="path4664" />
          </symbol>
          <symbol
             style="overflow:visible"
             overflow="visible"
             id="textext-94e7af3c-2">
            <path
               inkscape:connector-curvature="0"
               style="stroke:none"
               d="m 2.875,-2.5 c 0,-0.765625 -0.109375,-1.96875 -0.65625,-3.109375 -0.59375,-1.21875 -1.453125,-1.875 -1.546875,-1.875 -0.0625,0 -0.109375,0.046875 -0.109375,0.109375 0,0.03125 0,0.046875 0.1875,0.234375 0.984375,0.984375 1.546875,2.5625 1.546875,4.640625 0,1.71875 -0.359375,3.46875 -1.59375,4.71875 C 0.5625,2.34375 0.5625,2.359375 0.5625,2.390625 0.5625,2.453125 0.609375,2.5 0.671875,2.5 0.765625,2.5 1.671875,1.8125 2.25,0.546875 2.765625,-0.546875 2.875,-1.65625 2.875,-2.5 Z m 0,0"
               id="path4667" />
          </symbol>
          <symbol
             style="overflow:visible"
             overflow="visible"
             id="textext-94e7af3c-3">
            <path
               inkscape:connector-curvature="0"
               style="stroke:none"
               d=""
               id="path4670" />
          </symbol>
          <symbol
             style="overflow:visible"
             overflow="visible"
             id="textext-94e7af3c-4">
            <path
               inkscape:connector-curvature="0"
               style="stroke:none"
               d="M 3.71875,-3.765625 C 3.53125,-4.140625 3.25,-4.40625 2.796875,-4.40625 c -1.15625,0 -2.390625,1.46875 -2.390625,2.921875 0,0.9375 0.546875,1.59375 1.3125,1.59375 0.203125,0 0.703125,-0.046875 1.296875,-0.75 0.078125,0.421875 0.4375,0.75 0.90625,0.75 0.359375,0 0.578125,-0.234375 0.75,-0.546875 0.15625,-0.359375 0.296875,-0.96875 0.296875,-0.984375 0,-0.109375 -0.09375,-0.109375 -0.125,-0.109375 -0.09375,0 -0.109375,0.046875 -0.140625,0.1875 -0.171875,0.640625 -0.34375,1.234375 -0.75,1.234375 -0.28125,0 -0.296875,-0.265625 -0.296875,-0.453125 0,-0.21875 0.015625,-0.3125 0.125,-0.75 C 3.890625,-1.71875 3.90625,-1.828125 4,-2.203125 L 4.359375,-3.59375 c 0.0625,-0.28125 0.0625,-0.296875 0.0625,-0.34375 0,-0.171875 -0.109375,-0.265625 -0.28125,-0.265625 -0.25,0 -0.390625,0.21875 -0.421875,0.4375 z M 3.078125,-1.1875 C 3.015625,-1 3.015625,-0.984375 2.875,-0.8125 2.4375,-0.265625 2.03125,-0.109375 1.75,-0.109375 c -0.5,0 -0.640625,-0.546875 -0.640625,-0.9375 0,-0.5 0.3125,-1.71875 0.546875,-2.1875 0.3125,-0.578125 0.75,-0.953125 1.15625,-0.953125 0.640625,0 0.78125,0.8125 0.78125,0.875 0,0.0625 -0.015625,0.125 -0.03125,0.171875 z m 0,0"
               id="path4673" />
          </symbol>
        </g>
      </defs>
      <g
         id="textext-94e7af3c-5">
        <g
           style="fill:#000000;fill-opacity:1"
           id="g4676">
          <use
             height="100%"
             width="100%"
             xlink:href="#textext-94e7af3c-1"
             x="223.43201"
             y="134.765"
             id="use4678" />
        </g>
        <g
           style="fill:#000000;fill-opacity:1"
           id="g4680">
          <use
             height="100%"
             width="100%"
             xlink:href="#textext-94e7af3c-4"
             x="227.306"
             y="134.765"
             id="use4682" />
        </g>
        <g
           style="fill:#000000;fill-opacity:1"
           id="g4684">
          <use
             height="100%"
             width="100%"
             xlink:href="#textext-94e7af3c-2"
             x="232.573"
             y="134.765"
             id="use4686" />
        </g>
      </g>
    </g>
    <g
       id="g4898"
       transform="matrix(4.137931,0,0,4.137931,-698.39753,-79.283717)"
       ns0:preamble=""
       ns0:text="$(b)$">
      <defs
         id="defs4900">
        <g
           id="g4902">
          <symbol
             id="textext-72cd67a2-0"
             overflow="visible">
            <path
               id="path4905"
               d=""
               style="stroke:none;" />
          </symbol>
          <symbol
             id="textext-72cd67a2-1"
             overflow="visible">
            <path
               id="path4908"
               d="M 3.296875 2.390625 C 3.296875 2.359375 3.296875 2.34375 3.125 2.171875 C 1.890625 0.921875 1.5625 -0.96875 1.5625 -2.5 C 1.5625 -4.234375 1.9375 -5.96875 3.171875 -7.203125 C 3.296875 -7.328125 3.296875 -7.34375 3.296875 -7.375 C 3.296875 -7.453125 3.265625 -7.484375 3.203125 -7.484375 C 3.09375 -7.484375 2.203125 -6.796875 1.609375 -5.53125 C 1.109375 -4.4375 0.984375 -3.328125 0.984375 -2.5 C 0.984375 -1.71875 1.09375 -0.515625 1.640625 0.625 C 2.25 1.84375 3.09375 2.5 3.203125 2.5 C 3.265625 2.5 3.296875 2.46875 3.296875 2.390625 Z M 3.296875 2.390625 "
               style="stroke:none;" />
          </symbol>
          <symbol
             id="textext-72cd67a2-2"
             overflow="visible">
            <path
               id="path4911"
               d="M 2.875 -2.5 C 2.875 -3.265625 2.765625 -4.46875 2.21875 -5.609375 C 1.625 -6.828125 0.765625 -7.484375 0.671875 -7.484375 C 0.609375 -7.484375 0.5625 -7.4375 0.5625 -7.375 C 0.5625 -7.34375 0.5625 -7.328125 0.75 -7.140625 C 1.734375 -6.15625 2.296875 -4.578125 2.296875 -2.5 C 2.296875 -0.78125 1.9375 0.96875 0.703125 2.21875 C 0.5625 2.34375 0.5625 2.359375 0.5625 2.390625 C 0.5625 2.453125 0.609375 2.5 0.671875 2.5 C 0.765625 2.5 1.671875 1.8125 2.25 0.546875 C 2.765625 -0.546875 2.875 -1.65625 2.875 -2.5 Z M 2.875 -2.5 "
               style="stroke:none;" />
          </symbol>
          <symbol
             id="textext-72cd67a2-3"
             overflow="visible">
            <path
               id="path4914"
               d=""
               style="stroke:none;" />
          </symbol>
          <symbol
             id="textext-72cd67a2-4"
             overflow="visible">
            <path
               id="path4917"
               d="M 2.375 -6.8125 C 2.375 -6.8125 2.375 -6.921875 2.25 -6.921875 C 2.03125 -6.921875 1.296875 -6.84375 1.03125 -6.8125 C 0.953125 -6.8125 0.84375 -6.796875 0.84375 -6.625 C 0.84375 -6.5 0.9375 -6.5 1.09375 -6.5 C 1.5625 -6.5 1.578125 -6.4375 1.578125 -6.328125 C 1.578125 -6.265625 1.5 -5.921875 1.453125 -5.71875 L 0.625 -2.46875 C 0.515625 -1.96875 0.46875 -1.796875 0.46875 -1.453125 C 0.46875 -0.515625 1 0.109375 1.734375 0.109375 C 2.90625 0.109375 4.140625 -1.375 4.140625 -2.8125 C 4.140625 -3.71875 3.609375 -4.40625 2.8125 -4.40625 C 2.359375 -4.40625 1.9375 -4.109375 1.640625 -3.8125 Z M 1.453125 -3.046875 C 1.5 -3.265625 1.5 -3.28125 1.59375 -3.390625 C 2.078125 -4.03125 2.53125 -4.1875 2.796875 -4.1875 C 3.15625 -4.1875 3.421875 -3.890625 3.421875 -3.25 C 3.421875 -2.65625 3.09375 -1.515625 2.90625 -1.140625 C 2.578125 -0.46875 2.125 -0.109375 1.734375 -0.109375 C 1.390625 -0.109375 1.0625 -0.375 1.0625 -1.109375 C 1.0625 -1.3125 1.0625 -1.5 1.21875 -2.125 Z M 1.453125 -3.046875 "
               style="stroke:none;" />
          </symbol>
        </g>
      </defs>
      <g
         id="textext-72cd67a2-5">
        <g
           id="g4920"
           style="fill:rgb(0%,0%,0%);fill-opacity:1;">
          <use
             id="use4922"
             y="134.765"
             x="223.432"
             xlink:href="#textext-72cd67a2-1" />
        </g>
        <g
           id="g4924"
           style="fill:rgb(0%,0%,0%);fill-opacity:1;">
          <use
             id="use4926"
             y="134.765"
             x="227.306"
             xlink:href="#textext-72cd67a2-4" />
        </g>
        <g
           id="g4928"
           style="fill:rgb(0%,0%,0%);fill-opacity:1;">
          <use
             id="use4930"
             y="134.765"
             x="231.582"
             xlink:href="#textext-72cd67a2-2" />
        </g>
      </g>
    </g>
  </g>
</svg>
